<?xml version="1.0" encoding="UTF-8" standalone="no"?>
<!DOCTYPE svg PUBLIC "-//W3C//DTD SVG 1.1//EN" "http://www.w3.org/Graphics/SVG/1.1/DTD/svg11.dtd">
<svg width="100%" height="100%" viewBox="0 0 1158 269" version="1.1" xmlns="http://www.w3.org/2000/svg" xmlns:xlink="http://www.w3.org/1999/xlink" xml:space="preserve" xmlns:serif="http://www.serif.com/" style="fill-rule:evenodd;clip-rule:evenodd;stroke-linejoin:round;stroke-miterlimit:2;">
    <g id="Artboard1" transform="matrix(1.38884,0,0,0.321814,0,0)">
        <rect x="0" y="0" width="833.333" height="833.333" style="fill:none;"/>
        <g transform="matrix(1.41233,0,0,3.10738,-27.0945,-703.954)">
            <g transform="matrix(2.76158,0,0,5.41685,-2817.26,-9374.42)">
                <path d="M1225.17,1813.31C1224.53,1813.97 1223.8,1814.52 1222.97,1814.97C1221.22,1815.92 1219.32,1816.39 1217.25,1816.39C1215.02,1816.39 1213.02,1815.96 1211.27,1815.09C1209.52,1814.23 1208.17,1812.9 1207.2,1811.12C1206.23,1809.34 1205.75,1807.06 1205.75,1804.29L1205.75,1792.92L1209.58,1789.09L1213.55,1789.09L1213.55,1803.14C1213.55,1805.38 1214.02,1807.02 1214.97,1808.07C1215.92,1809.12 1217.27,1809.64 1219,1809.64C1219.78,1809.64 1220.51,1809.53 1221.17,1809.31C1221.53,1809.2 1221.87,1809.05 1222.2,1808.87C1223.13,1808.35 1223.87,1807.55 1224.4,1806.47C1224.93,1805.38 1225.2,1804.03 1225.2,1802.39L1225.2,1789.09L1233,1789.09L1233,1789.4L1232.47,1815.42L1227.13,1815.42L1226.91,1815.05L1225.17,1813.31ZM1139.25,1789.09L1139.25,1815.99L1131.44,1815.99L1131.44,1793.53L1136.11,1789.09L1139.25,1789.09ZM1124.66,1788.22L1124.46,1792.4C1124.38,1793.7 1123.3,1794.72 1121.99,1794.72C1117.54,1794.72 1109.16,1794.62 1109.16,1794.62C1107.32,1794.54 1106.65,1795.84 1108.49,1797.26C1108.49,1797.26 1121.6,1800.8 1123.01,1801.98C1125.52,1804.08 1126.03,1806.87 1125.82,1809.6L1119.09,1815.95C1118.77,1815.98 1118.45,1815.99 1118.12,1815.99L1103.27,1815.99C1102.27,1815.99 1101.29,1815.64 1100.52,1815.01L1097.72,1811.42L1097.72,1809.6L1115.1,1809.6C1116.8,1809.6 1117.33,1808.09 1116.03,1807C1114.27,1805.54 1104.94,1804.48 1102.3,1802.28C1100.15,1800.49 1099.71,1797.06 1099.9,1794.82L1106.5,1788.22C1108.73,1788.2 1110.54,1788.18 1112.03,1788.18L1112.03,1788.22L1124.66,1788.22ZM1145.06,1815.99L1145.06,1789.12L1149.69,1784.72L1152.86,1784.72L1152.86,1799.76L1157.38,1795.62L1164.26,1789.09L1169.12,1789.09L1169.12,1793.6L1162.3,1800.41L1171.16,1811.68L1171.16,1815.99L1165.11,1815.99L1156.91,1805.81L1152.86,1809.86L1152.86,1815.99L1145.06,1815.99ZM1176.24,1815.99L1176.24,1789.12L1180.87,1784.72L1184.04,1784.72L1184.04,1799.76L1188.56,1795.62L1195.44,1789.09L1200.3,1789.09L1200.3,1793.6L1193.48,1800.41L1202.35,1811.68L1202.35,1815.99L1196.29,1815.99L1188.09,1805.81L1184.04,1809.86L1184.04,1815.99L1176.24,1815.99Z" style="fill:rgb(21,58,127);"/>
            </g>
            <g transform="matrix(0.894462,-0.0912935,0.0465426,1.75449,-3675.04,-2451.98)">
                <path d="M4049.31,1879.49C4048.59,1879.68 4047.82,1879.48 4047.3,1878.95C4046.77,1878.42 4046.56,1877.66 4046.76,1876.94C4051.4,1859.62 4071.94,1782.95 4076.58,1765.63C4076.78,1764.91 4077.34,1764.35 4078.06,1764.15C4078.78,1763.96 4079.54,1764.17 4080.07,1764.69C4084.01,1768.63 4091.12,1775.75 4091.12,1775.75L4069.06,1858.1L4151.41,1836.03L4158.63,1843.25L4158.63,1843.27L4158.65,1843.27L4164.09,1848.72L4164.09,1848.73C4164.09,1848.73 4068.87,1874.25 4049.31,1879.49Z" style="fill:rgb(21,58,127);"/>
            </g>
            <g transform="matrix(0.894462,-0.0912935,0.0465426,1.75449,-3675.04,-2451.98)">
                <path d="M4097.93,1782.55L4111.54,1796.16L4104.75,1821.5L4130.09,1814.71L4144.61,1829.23L4080.85,1846.31L4097.93,1782.55Z" style="fill:rgb(21,58,127);"/>
            </g>
            <g transform="matrix(0.894462,-0.0912935,0.0465426,1.75449,-3675.04,-2451.98)">
                <path d="M4226.32,1765.41C4227.03,1765.21 4227.8,1765.42 4228.33,1765.95C4228.86,1766.47 4229.06,1767.24 4228.87,1767.96C4224.23,1785.28 4203.69,1861.93 4199.05,1879.25C4198.85,1879.97 4198.29,1880.53 4197.57,1880.72C4196.86,1880.92 4196.09,1880.71 4195.56,1880.18C4183.19,1867.82 4130.09,1814.71 4130.09,1814.71L4111.54,1796.16C4111.54,1796.16 4206.76,1770.65 4226.32,1765.41Z" style="fill:rgb(217,36,27);"/>
            </g>
            <g transform="matrix(0.20818,-0.408346,0.20818,0.408346,-1243.22,-1442.84)">
                <rect x="1580.63" y="5815.68" width="74.163" height="74.163" style="fill:rgb(217,36,27);"/>
            </g>
        </g>
    </g>
</svg>
